# xmcd
#
# Track frame offsets: 
#        150
#        23948
#        40242
#        51921
#        67804
#        89673
#        103433
#        119397
#        133683
#        152237
#
# Disc length: 2178 seconds
#
# Revision: 0
# Processed by: cddbd v1.5.2PL0 Copyright (c) Steve Scherf et al.
# Submitted via: ExactAudioCopy v1.1
#
DISCID=8e08800a
DTITLE=Max Bennett - Max Bennett
DYEAR=1955
DGENRE=Jazz
TTITLE0=Johnny Jaguar
TTITLE1=My Heart Belongs to Daddy
TTITLE2=Something to Remember You By
TTITLE3=I Hadn't Anyone 'Till You
TTITLE4=Ira of the I.R.A.
TTITLE5=Max Is the Factor
TTITLE6=Strike Up the Band
TTITLE7=13 Toes
TTITLE8=Polka Dots and Moonbeams
TTITLE9=Nice Work If You Can Get It
EXTD=
EXTT0=
EXTT1=
EXTT2=
EXTT3=
EXTT4=
EXTT5=
EXTT6=
EXTT7=
EXTT8=
EXTT9=
PLAYORDER=
